<mxfile host="app.diagrams.net" modified="2024-02-27T00:42:50.097Z" agent="Mozilla/5.0 (Windows NT 10.0; Win64; x64) AppleWebKit/537.36 (KHTML, like Gecko) Chrome/122.0.0.0 Safari/537.36" etag="ZdEgMVVDaSH7GF0ZWQwL" version="23.1.7" type="github">
  <diagram name="PÃ¡gina-1" id="6ZA59qYh-u2Bi6PpkiDR">
    <mxGraphModel dx="926" dy="503" grid="1" gridSize="10" guides="1" tooltips="1" connect="1" arrows="1" fold="1" page="1" pageScale="1" pageWidth="827" pageHeight="1169" math="0" shadow="0">
      <root>
        <mxCell id="0" />
        <mxCell id="1" parent="0" />
        <mxCell id="NUT5D-bwoyeGpzMDlFoK-1" value="&amp;lt;&amp;lt;Abstract&amp;gt;&amp;gt; Gesto" style="swimlane;fontStyle=1;align=center;verticalAlign=top;childLayout=stackLayout;horizontal=1;startSize=26;horizontalStack=0;resizeParent=1;resizeParentMax=0;resizeLast=0;collapsible=1;marginBottom=0;whiteSpace=wrap;html=1;" parent="1" vertex="1">
          <mxGeometry x="314" y="530" width="200" height="110" as="geometry" />
        </mxCell>
        <mxCell id="NUT5D-bwoyeGpzMDlFoK-3" value="" style="line;strokeWidth=1;fillColor=none;align=left;verticalAlign=middle;spacingTop=-1;spacingLeft=3;spacingRight=3;rotatable=0;labelPosition=right;points=[];portConstraint=eastwest;strokeColor=inherit;" parent="NUT5D-bwoyeGpzMDlFoK-1" vertex="1">
          <mxGeometry y="26" width="200" height="8" as="geometry" />
        </mxCell>
        <mxCell id="NUT5D-bwoyeGpzMDlFoK-4" value="+ compararCon(Gesto):Resultado;&lt;br&gt;+ comparaConPiedra():Resultado;&lt;br&gt;+ compararConPapel():Resultado;&lt;br&gt;+ compararConTijera():Resultado;" style="text;strokeColor=none;fillColor=none;align=left;verticalAlign=top;spacingLeft=4;spacingRight=4;overflow=hidden;rotatable=0;points=[[0,0.5],[1,0.5]];portConstraint=eastwest;whiteSpace=wrap;html=1;" parent="NUT5D-bwoyeGpzMDlFoK-1" vertex="1">
          <mxGeometry y="34" width="200" height="76" as="geometry" />
        </mxCell>
        <mxCell id="NUT5D-bwoyeGpzMDlFoK-5" value="Piedra" style="swimlane;fontStyle=1;align=center;verticalAlign=top;childLayout=stackLayout;horizontal=1;startSize=26;horizontalStack=0;resizeParent=1;resizeParentMax=0;resizeLast=0;collapsible=1;marginBottom=0;whiteSpace=wrap;html=1;" parent="1" vertex="1">
          <mxGeometry x="104" y="810" width="200" height="100" as="geometry" />
        </mxCell>
        <mxCell id="NUT5D-bwoyeGpzMDlFoK-7" value="" style="line;strokeWidth=1;fillColor=none;align=left;verticalAlign=middle;spacingTop=-1;spacingLeft=3;spacingRight=3;rotatable=0;labelPosition=right;points=[];portConstraint=eastwest;strokeColor=inherit;" parent="NUT5D-bwoyeGpzMDlFoK-5" vertex="1">
          <mxGeometry y="26" width="200" height="8" as="geometry" />
        </mxCell>
        <mxCell id="NUT5D-bwoyeGpzMDlFoK-8" value="+ compararCon(Gesto):Resultado;&lt;br style=&quot;border-color: var(--border-color);&quot;&gt;+ comparaConPiedra():Resultado;&lt;br style=&quot;border-color: var(--border-color);&quot;&gt;+ compararConPapel():Resultado;&lt;br style=&quot;border-color: var(--border-color);&quot;&gt;+ compararConTijera():Resultado;" style="text;strokeColor=none;fillColor=none;align=left;verticalAlign=top;spacingLeft=4;spacingRight=4;overflow=hidden;rotatable=0;points=[[0,0.5],[1,0.5]];portConstraint=eastwest;whiteSpace=wrap;html=1;" parent="NUT5D-bwoyeGpzMDlFoK-5" vertex="1">
          <mxGeometry y="34" width="200" height="66" as="geometry" />
        </mxCell>
        <mxCell id="NUT5D-bwoyeGpzMDlFoK-9" value="Papel" style="swimlane;fontStyle=1;align=center;verticalAlign=top;childLayout=stackLayout;horizontal=1;startSize=26;horizontalStack=0;resizeParent=1;resizeParentMax=0;resizeLast=0;collapsible=1;marginBottom=0;whiteSpace=wrap;html=1;" parent="1" vertex="1">
          <mxGeometry x="314" y="810" width="200" height="104" as="geometry" />
        </mxCell>
        <mxCell id="NUT5D-bwoyeGpzMDlFoK-11" value="" style="line;strokeWidth=1;fillColor=none;align=left;verticalAlign=middle;spacingTop=-1;spacingLeft=3;spacingRight=3;rotatable=0;labelPosition=right;points=[];portConstraint=eastwest;strokeColor=inherit;" parent="NUT5D-bwoyeGpzMDlFoK-9" vertex="1">
          <mxGeometry y="26" width="200" height="8" as="geometry" />
        </mxCell>
        <mxCell id="NUT5D-bwoyeGpzMDlFoK-12" value="+ compararCon(Gesto):Resultado;&lt;br style=&quot;border-color: var(--border-color);&quot;&gt;+ comparaConPiedra():Resultado;&lt;br style=&quot;border-color: var(--border-color);&quot;&gt;+ compararConPapel():Resultado;&lt;br style=&quot;border-color: var(--border-color);&quot;&gt;+ compararConTijera():Resultado;" style="text;strokeColor=none;fillColor=none;align=left;verticalAlign=top;spacingLeft=4;spacingRight=4;overflow=hidden;rotatable=0;points=[[0,0.5],[1,0.5]];portConstraint=eastwest;whiteSpace=wrap;html=1;" parent="NUT5D-bwoyeGpzMDlFoK-9" vertex="1">
          <mxGeometry y="34" width="200" height="70" as="geometry" />
        </mxCell>
        <mxCell id="NUT5D-bwoyeGpzMDlFoK-13" value="Tijera" style="swimlane;fontStyle=1;align=center;verticalAlign=top;childLayout=stackLayout;horizontal=1;startSize=26;horizontalStack=0;resizeParent=1;resizeParentMax=0;resizeLast=0;collapsible=1;marginBottom=0;whiteSpace=wrap;html=1;" parent="1" vertex="1">
          <mxGeometry x="524" y="810" width="200" height="110" as="geometry" />
        </mxCell>
        <mxCell id="NUT5D-bwoyeGpzMDlFoK-15" value="" style="line;strokeWidth=1;fillColor=none;align=left;verticalAlign=middle;spacingTop=-1;spacingLeft=3;spacingRight=3;rotatable=0;labelPosition=right;points=[];portConstraint=eastwest;strokeColor=inherit;" parent="NUT5D-bwoyeGpzMDlFoK-13" vertex="1">
          <mxGeometry y="26" width="200" height="8" as="geometry" />
        </mxCell>
        <mxCell id="NUT5D-bwoyeGpzMDlFoK-16" value="+ compararCon(Gesto):Resultado;&lt;br style=&quot;border-color: var(--border-color);&quot;&gt;+ comparaConPiedra():Resultado;&lt;br style=&quot;border-color: var(--border-color);&quot;&gt;+ compararConPapel():Resultado;&lt;br style=&quot;border-color: var(--border-color);&quot;&gt;+ compararConTijera():Resultado;" style="text;strokeColor=none;fillColor=none;align=left;verticalAlign=top;spacingLeft=4;spacingRight=4;overflow=hidden;rotatable=0;points=[[0,0.5],[1,0.5]];portConstraint=eastwest;whiteSpace=wrap;html=1;" parent="NUT5D-bwoyeGpzMDlFoK-13" vertex="1">
          <mxGeometry y="34" width="200" height="76" as="geometry" />
        </mxCell>
        <mxCell id="NUT5D-bwoyeGpzMDlFoK-17" value="Partida" style="swimlane;fontStyle=1;align=center;verticalAlign=top;childLayout=stackLayout;horizontal=1;startSize=26;horizontalStack=0;resizeParent=1;resizeParentMax=0;resizeLast=0;collapsible=1;marginBottom=0;whiteSpace=wrap;html=1;" parent="1" vertex="1">
          <mxGeometry x="284" y="280" width="230" height="150" as="geometry" />
        </mxCell>
        <mxCell id="NUT5D-bwoyeGpzMDlFoK-18" value="- partida: Partida;&lt;br&gt;- ronda: Ronda;" style="text;strokeColor=none;fillColor=none;align=left;verticalAlign=top;spacingLeft=4;spacingRight=4;overflow=hidden;rotatable=0;points=[[0,0.5],[1,0.5]];portConstraint=eastwest;whiteSpace=wrap;html=1;" parent="NUT5D-bwoyeGpzMDlFoK-17" vertex="1">
          <mxGeometry y="26" width="230" height="44" as="geometry" />
        </mxCell>
        <mxCell id="NUT5D-bwoyeGpzMDlFoK-19" value="" style="line;strokeWidth=1;fillColor=none;align=left;verticalAlign=middle;spacingTop=-1;spacingLeft=3;spacingRight=3;rotatable=0;labelPosition=right;points=[];portConstraint=eastwest;strokeColor=inherit;" parent="NUT5D-bwoyeGpzMDlFoK-17" vertex="1">
          <mxGeometry y="70" width="230" height="8" as="geometry" />
        </mxCell>
        <mxCell id="NUT5D-bwoyeGpzMDlFoK-20" value="+ getPartida():Partida;&lt;br&gt;+ jugarRonda(Gesto, Gesto);&lt;br&gt;+ jugarPartida(Jugador, Jugador);" style="text;strokeColor=none;fillColor=none;align=left;verticalAlign=top;spacingLeft=4;spacingRight=4;overflow=hidden;rotatable=0;points=[[0,0.5],[1,0.5]];portConstraint=eastwest;whiteSpace=wrap;html=1;" parent="NUT5D-bwoyeGpzMDlFoK-17" vertex="1">
          <mxGeometry y="78" width="230" height="72" as="geometry" />
        </mxCell>
        <mxCell id="NUT5D-bwoyeGpzMDlFoK-25" value="Extends" style="endArrow=block;endSize=16;endFill=0;html=1;rounded=0;entryX=0.265;entryY=1.092;entryDx=0;entryDy=0;entryPerimeter=0;exitX=0.5;exitY=0;exitDx=0;exitDy=0;" parent="1" source="NUT5D-bwoyeGpzMDlFoK-5" target="NUT5D-bwoyeGpzMDlFoK-4" edge="1">
          <mxGeometry width="160" relative="1" as="geometry">
            <mxPoint x="244" y="700" as="sourcePoint" />
            <mxPoint x="404" y="700" as="targetPoint" />
          </mxGeometry>
        </mxCell>
        <mxCell id="NUT5D-bwoyeGpzMDlFoK-26" value="Extends" style="endArrow=block;endSize=16;endFill=0;html=1;rounded=0;entryX=0.479;entryY=1.073;entryDx=0;entryDy=0;entryPerimeter=0;exitX=0.5;exitY=0;exitDx=0;exitDy=0;" parent="1" source="NUT5D-bwoyeGpzMDlFoK-9" target="NUT5D-bwoyeGpzMDlFoK-4" edge="1">
          <mxGeometry width="160" relative="1" as="geometry">
            <mxPoint x="254" y="710" as="sourcePoint" />
            <mxPoint x="414" y="710" as="targetPoint" />
          </mxGeometry>
        </mxCell>
        <mxCell id="NUT5D-bwoyeGpzMDlFoK-27" value="Extends" style="endArrow=block;endSize=16;endFill=0;html=1;rounded=0;entryX=0.765;entryY=1.055;entryDx=0;entryDy=0;entryPerimeter=0;exitX=0.5;exitY=0;exitDx=0;exitDy=0;" parent="1" source="NUT5D-bwoyeGpzMDlFoK-13" target="NUT5D-bwoyeGpzMDlFoK-4" edge="1">
          <mxGeometry width="160" relative="1" as="geometry">
            <mxPoint x="264" y="720" as="sourcePoint" />
            <mxPoint x="424" y="720" as="targetPoint" />
          </mxGeometry>
        </mxCell>
        <mxCell id="JR43wPRDYDWxTDjAdFT2-5" style="edgeStyle=orthogonalEdgeStyle;rounded=0;orthogonalLoop=1;jettySize=auto;html=1;entryX=1;entryY=0.5;entryDx=0;entryDy=0;" edge="1" parent="1" source="NUT5D-bwoyeGpzMDlFoK-28" target="NUT5D-bwoyeGpzMDlFoK-4">
          <mxGeometry relative="1" as="geometry" />
        </mxCell>
        <mxCell id="NUT5D-bwoyeGpzMDlFoK-28" value="Jugador" style="swimlane;fontStyle=1;align=center;verticalAlign=top;childLayout=stackLayout;horizontal=1;startSize=26;horizontalStack=0;resizeParent=1;resizeParentMax=0;resizeLast=0;collapsible=1;marginBottom=0;whiteSpace=wrap;html=1;" parent="1" vertex="1">
          <mxGeometry x="600" y="470" width="190" height="170" as="geometry" />
        </mxCell>
        <mxCell id="NUT5D-bwoyeGpzMDlFoK-29" value="- gesto:Gesto;&lt;br&gt;- nombre: String;" style="text;strokeColor=none;fillColor=none;align=left;verticalAlign=top;spacingLeft=4;spacingRight=4;overflow=hidden;rotatable=0;points=[[0,0.5],[1,0.5]];portConstraint=eastwest;whiteSpace=wrap;html=1;" parent="NUT5D-bwoyeGpzMDlFoK-28" vertex="1">
          <mxGeometry y="26" width="190" height="44" as="geometry" />
        </mxCell>
        <mxCell id="NUT5D-bwoyeGpzMDlFoK-30" value="" style="line;strokeWidth=1;fillColor=none;align=left;verticalAlign=middle;spacingTop=-1;spacingLeft=3;spacingRight=3;rotatable=0;labelPosition=right;points=[];portConstraint=eastwest;strokeColor=inherit;" parent="NUT5D-bwoyeGpzMDlFoK-28" vertex="1">
          <mxGeometry y="70" width="190" height="8" as="geometry" />
        </mxCell>
        <mxCell id="NUT5D-bwoyeGpzMDlFoK-31" value="+ setGesto(Gesto);&lt;br&gt;+ getGesto():Gesto;&lt;br&gt;+ setNombre(String);&lt;br&gt;+ getNombre():String;" style="text;strokeColor=none;fillColor=none;align=left;verticalAlign=top;spacingLeft=4;spacingRight=4;overflow=hidden;rotatable=0;points=[[0,0.5],[1,0.5]];portConstraint=eastwest;whiteSpace=wrap;html=1;" parent="NUT5D-bwoyeGpzMDlFoK-28" vertex="1">
          <mxGeometry y="78" width="190" height="92" as="geometry" />
        </mxCell>
        <mxCell id="JR43wPRDYDWxTDjAdFT2-1" value="&lt;p style=&quot;margin:0px;margin-top:4px;text-align:center;text-decoration:underline;&quot;&gt;&lt;b&gt;Ronda:Enum&lt;/b&gt;&lt;/p&gt;&lt;hr&gt;&lt;p style=&quot;margin:0px;margin-left:8px;&quot;&gt;UNO = Ronda;&lt;br&gt;TRES = Ronda;&lt;br&gt;CINCO = Ronda;&lt;/p&gt;" style="verticalAlign=top;align=left;overflow=fill;html=1;whiteSpace=wrap;" vertex="1" parent="1">
          <mxGeometry x="25" y="450" width="160" height="90" as="geometry" />
        </mxCell>
        <mxCell id="JR43wPRDYDWxTDjAdFT2-2" value="&lt;p style=&quot;margin:0px;margin-top:4px;text-align:center;text-decoration:underline;&quot;&gt;&lt;b&gt;Resultado:Enum&lt;/b&gt;&lt;/p&gt;&lt;hr&gt;&lt;p style=&quot;margin:0px;margin-left:8px;&quot;&gt;GANA = Resultado;&lt;br&gt;EMPATA = Resultado;&lt;br&gt;PIERDE = Resultado;&lt;/p&gt;" style="verticalAlign=top;align=left;overflow=fill;html=1;whiteSpace=wrap;" vertex="1" parent="1">
          <mxGeometry x="25" y="585" width="160" height="90" as="geometry" />
        </mxCell>
        <mxCell id="JR43wPRDYDWxTDjAdFT2-4" style="edgeStyle=orthogonalEdgeStyle;rounded=0;orthogonalLoop=1;jettySize=auto;html=1;entryX=0.5;entryY=0;entryDx=0;entryDy=0;exitX=0;exitY=0.5;exitDx=0;exitDy=0;" edge="1" parent="1" source="NUT5D-bwoyeGpzMDlFoK-18" target="JR43wPRDYDWxTDjAdFT2-1">
          <mxGeometry relative="1" as="geometry">
            <Array as="points">
              <mxPoint x="105" y="328" />
            </Array>
          </mxGeometry>
        </mxCell>
      </root>
    </mxGraphModel>
  </diagram>
</mxfile>
